<?xml version="1.0" encoding="UTF-8"?>
<svg width="447px" height="283px" viewBox="0 0 447 283" version="1.1" xmlns="http://www.w3.org/2000/svg" xmlns:xlink="http://www.w3.org/1999/xlink">
    <title>Artboard</title>
    <g id="Artboard" stroke="none" stroke-width="1" fill="none" fill-rule="evenodd">
        <path d="M234.9375,16 C281.70849,16 320.485347,49.7936971 327.587198,93.999975 L329.132258,94 C361.644014,94 388,120.191342 388,152.5 C388,184.808658 361.644014,211 329.132258,211 L195.055242,211 C194.415247,211 193.777637,210.989851 193.142567,210.969706 C192.433613,210.99055 191.722756,211 191.009677,211 L150.490323,211 C107.141314,211 72,176.07821 72,133 C72,89.9217895 107.141314,55 150.490323,55 L158.435662,55.0017232 C175.438397,31.3975806 203.366746,16 234.9375,16 Z" id="Path" fill="#B9B9B9" opacity="0.164713542"></path>
        <path d="M405.488861,111.07179 C407.524593,111.070138 409.46749,111.438509 411.317553,112.176903 C413.167616,112.915298 414.832312,114.02379 416.31164,115.50238 L431.56721,130.750344 C433.000309,132.182729 434.086238,133.823491 434.824999,135.67263 C435.56376,137.521769 435.955427,139.486799 436,141.567718 C435.998344,143.602432 435.62663,145.54496 434.884859,147.3953 C434.143087,149.245641 433.031333,150.911308 431.549597,152.392302 L430.577207,153.364204 C428.076777,155.86338 425.784772,158.084927 423.701193,160.028843 C421.617614,161.97276 419.441765,163.593047 417.173646,164.889705 C414.905528,166.186363 412.383168,167.205766 409.606568,167.947915 C406.829968,168.690063 403.521621,169.039574 399.681529,168.996447 C393.8982,169 387.953671,168.104217 381.847943,166.305677 C375.742215,164.507137 369.683319,162.014907 363.671253,158.828986 C357.659188,155.643066 351.740145,151.855905 345.914124,147.467504 C340.088104,143.079102 334.609403,138.297349 329.478022,133.122245 C324.34664,127.947141 319.585656,122.448032 315.195068,116.624918 C310.804479,110.801804 307.061699,104.885678 303.966727,98.8765388 C300.871755,92.8673996 298.424535,86.834613 296.625066,80.778179 C294.825598,74.721745 293.951273,68.8957776 294.002094,63.3002767 C294.005217,59.4620663 294.331756,56.1785151 294.981709,53.449623 C295.631662,50.7207309 296.628427,48.2227747 297.972004,45.9557544 C299.31558,43.6887341 300.936662,41.5370972 302.83525,39.5008438 C304.733838,37.4645905 306.956499,35.173735 309.503234,32.6282775 L310.614536,31.5175324 C312.049968,30.08282 313.693337,28.9716431 315.544642,28.1840017 C317.395947,27.3963603 319.362599,27.0016948 321.444597,27 C323.480329,26.9983531 325.423208,27.3898459 327.273233,28.1744835 C329.123259,28.9591211 330.787955,30.0676133 332.26732,31.4999603 L347.52289,46.7479243 C348.955989,48.1803088 350.041919,49.8210707 350.780679,51.6702098 C351.51944,53.519349 351.911107,55.4843786 351.95568,57.5652985 C351.954024,59.6000124 351.605557,61.4037905 350.910278,62.9766327 C350.214999,64.5494748 349.357881,66.0068397 348.338923,67.3487272 C347.319966,68.6906147 346.208607,69.870725 345.004847,70.8890582 C343.801086,71.9073914 342.666707,72.94879 341.601709,74.0132541 C340.536711,75.0777181 339.67995,76.0957697 339.031427,77.0674089 C338.382904,78.039048 338.034982,79.1722953 337.987662,80.4671508 C337.986232,82.2244038 338.609608,83.7268106 339.857791,84.9743713 L378.066058,123.16359 C379.314241,124.411151 380.817399,125.034218 382.575531,125.032791 C383.778463,125.031815 384.889145,124.684088 385.907575,123.989609 C386.926006,123.29513 387.967701,122.438781 389.032662,121.42056 C390.097622,120.40234 391.139525,119.291651 392.158369,118.088494 C393.177213,116.885337 394.357935,115.751414 395.700533,114.686725 C397.04313,113.622035 398.478092,112.765367 400.005418,112.116718 C401.532744,111.46807 403.360558,111.119761 405.488861,111.07179 Z" id="Path" fill="#000000" fill-rule="nonzero" opacity="0.08" transform="translate(365.000000, 98.000000) scale(-1, 1) translate(-365.000000, -98.000000) "></path>
        <path d="M163.267016,140 C170.299249,140 176,145.658793 176,152.639269 L176,241.320986 C176,248.301462 170.299249,253.960255 163.267016,253.960255 L115.246953,253.959595 L92.9108308,273.981686 C91.2798093,275.443631 88.7636771,275.316299 87.2908922,273.697282 C86.6305895,272.971419 86.2650602,272.028197 86.2650602,271.050197 L86.2642932,253.959595 L36.7329843,253.960255 C29.7007512,253.960255 24,248.301462 24,241.320986 L24,152.639269 C24,145.658793 29.7007512,140 36.7329843,140 L163.267016,140 Z" id="Path" fill="#000000" opacity="0.104561942"></path>
    </g>
</svg>