<?xml version="1.0" encoding="UTF-8"?>
<svg width="22rem" height="17.875rem" viewBox="0 0 352 286" version="1.1" xmlns="http://www.w3.org/2000/svg" xmlns:xlink="http://www.w3.org/1999/xlink">
    <title>Group 4</title>
    <g id="One-click-chat-room" stroke="none" stroke-width="1" fill="none" fill-rule="evenodd">
        <g id="Artboard" transform="translate(4.000000, 6.000000)">
            <g id="Group-4" transform="translate(-4.000000, -6.000000)">
                <path d="M276.405803,80.1858717 C286.398976,80.1858717 294.500044,87.4375105 294.500044,96.3828603 L294.500044,210.026839 C294.500044,218.972189 286.398976,226.223828 276.405803,226.223828 L208.166766,226.222983 L176.425961,251.880922 C174.108194,253.754377 170.532637,253.591204 168.439733,251.516463 C167.501408,250.586282 166.981971,249.377561 166.981971,248.124272 L166.980881,226.222983 L96.5942845,226.223828 C86.6011112,226.223828 78.5000436,218.972189 78.5000436,210.026839 L78.5000436,96.3828603 C78.5000436,87.4375105 86.6011112,80.1858717 96.5942845,80.1858717 L276.405803,80.1858717 Z" id="Path" fill="#000000" opacity="0.04"></path>
                <g id="Group" opacity="0.16" transform="translate(284.517938, 225.645941) rotate(-4.000000) translate(-284.517938, -225.645941) translate(221.017938, 170.145941)" fill="#212121" fill-rule="nonzero">
                    <path d="M68.5039001,10.7220879 L63.3137535,15.921349 L58.1076037,10.7173832 C44.8333222,-2.55132893 23.3114596,-2.55132893 10.0371782,10.7173832 C-3.2371033,23.9860954 -3.2371033,45.4989285 10.0371782,58.7676402 L59.9666448,108.676158 C61.81887,110.527607 64.8219204,110.527607 66.6741456,108.676158 L116.642176,58.7583827 C129.886893,45.4456714 129.90958,23.9931985 116.632899,10.7220879 C103.334445,-2.57078608 81.8023334,-2.57076604 68.5039001,10.7220879 Z" id="🎨-Color"></path>
                </g>
                <g id="Group" opacity="0.13" transform="translate(68.791806, 79.173879) rotate(4.000000) translate(-68.791806, -79.173879) translate(5.291806, 4.673879)" fill="#212121" fill-rule="nonzero">
                    <path d="M85.2839421,56.6699815 C88.5110396,46.6862882 90.1403312,37.9468822 90.1403312,30.4114718 C90.1403312,13.6299235 83.564319,0.695809161 72.6330312,0.695809161 C66.7031456,0.695809161 64.8679989,4.22356093 62.5716637,12.9169154 C62.6916573,12.4626507 61.4309419,17.3521828 61.0619756,18.6622279 C60.355105,21.1720305 59.1240694,25.4449519 57.3712918,31.4723021 C57.3244149,31.633768 57.2553738,31.7859284 57.165525,31.9263812 L37.0898544,63.3088622 C32.3415224,70.7315007 25.3352931,76.436877 17.100701,79.5866131 L8.29640054,82.9542618 C2.74048515,85.0794029 -0.48518697,90.8839781 0.647290657,96.7187837 L5.45241242,121.475965 C6.62289153,127.506564 11.1979192,132.306013 17.1700005,133.768343 L74.9406692,147.914131 C92.6665058,152.254499 110.582658,141.515841 115.091791,123.848184 L126.113513,80.662951 C128.74132,70.3666948 122.516768,59.8917236 112.210588,57.2664471 C110.655635,56.8703564 109.057225,56.6699815 107.452523,56.6699815 L85.2839421,56.6699815 Z" id="🎨-Color"></path>
                </g>
                <g id="Group" opacity="0.07" transform="translate(77.500044, 32.185872)" fill="#212121" fill-rule="nonzero">
                    <path d="M250.139114,33.1626677 L250.658054,33.1277533 C252.594167,33.1277533 254.194246,34.5666047 254.447481,36.4334165 L254.482392,36.9523984 L254.482392,40.7770436 L258.306731,40.7770436 C260.242844,40.7770436 261.842922,42.2158949 262.096157,44.0827068 L262.131069,44.6016887 C262.131069,46.5379576 260.692333,48.1381647 258.825671,48.3914194 L258.306731,48.4263338 L254.482392,48.4263338 L254.482392,52.250979 C254.482392,54.1872479 253.043656,55.7874549 251.176994,56.0407097 L250.658054,56.0756241 C248.721941,56.0756241 247.121862,54.6367727 246.868628,52.7699609 L246.833716,52.250979 L246.833716,48.4263338 L243.009378,48.4263338 C241.073264,48.4263338 239.473186,46.9874824 239.219951,45.1206706 L239.185039,44.6016887 C239.185039,42.6654198 240.623775,41.0652127 242.490438,40.811958 L243.009378,40.7770436 L246.833716,40.7770436 L246.833716,36.9523984 C246.833716,35.0161295 248.272452,33.4159225 250.139114,33.1626677 L250.658054,33.1277533 L250.139114,33.1626677 Z M232.536752,0.0349145225 L233.055692,0 C234.991805,0 236.591884,1.43885128 236.845118,3.30566343 L236.88003,3.82464513 L236.88003,7.64929026 L240.704368,7.64929026 C242.640482,7.64929026 244.24056,9.08814154 244.493795,10.9549537 L244.528707,11.4739354 C244.528707,13.4102042 243.089971,15.0104112 241.223309,15.263666 L240.704368,15.2985805 L236.88003,15.2985805 L236.88003,19.1232256 C236.88003,21.0594944 235.441294,22.6597014 233.574632,22.9129563 L233.055692,22.9478708 C231.119578,22.9478708 229.5195,21.5090195 229.266265,19.6422074 L229.231354,19.1232256 L229.231354,15.2985805 L225.407015,15.2985805 C223.470902,15.2985805 221.870823,13.8597292 221.617589,11.9929171 L221.582677,11.4739354 C221.582677,9.53766662 223.021413,7.93745963 224.888075,7.68420478 L225.407015,7.64929026 L229.231354,7.64929026 L229.231354,3.82464513 C229.231354,1.88837636 230.67009,0.288169366 232.536752,0.0349145225 L233.055692,0 L232.536752,0.0349145225 Z M10.9540746,210.190762 L11.4730147,210.154185 C13.4091281,210.154185 15.0092067,211.661553 15.2624412,213.617261 L15.2973529,214.160956 L15.2973529,218.167727 L19.1216911,218.167727 C21.0578045,218.167727 22.6578831,219.675095 22.9111176,221.630803 L22.9460294,222.174498 C22.9460294,224.20297 21.5072935,225.879378 19.6406312,226.144692 L19.1216911,226.181269 L15.2973529,226.181269 L15.2973529,230.18804 C15.2973529,232.216513 13.8586171,233.89292 11.9919547,234.158234 L11.4730147,234.194812 C9.53690128,234.194812 7.9368227,232.687444 7.68358817,230.731736 L7.64867645,230.18804 L7.64867645,226.181269 L3.82433823,226.181269 C1.88822483,226.181269 0.288146242,224.673901 0.0349117208,222.718193 L-7.10542736e-13,222.174498 C-7.10542736e-13,220.146026 1.43873583,218.469619 3.30539817,218.204304 L3.82433823,218.167727 L7.64867645,218.167727 L7.64867645,214.160956 C7.64867645,212.132484 9.08741228,210.456077 10.9540746,210.190762 L11.4730147,210.154185 L10.9540746,210.190762 Z" id="🎨-Color"></path>
                </g>
            </g>
        </g>
    </g>
</svg>